{
	"asset":{
		"generator":"Khronos glTF Blender I/O v4.0.44",
		"version":"2.0"
	},
	"extensionsUsed":[
		"KHR_materials_specular",
		"KHR_materials_ior"
	],
	"scene":0,
	"scenes":[
		{
			"name":"Scene",
			"nodes":[
				0
			]
		}
	],
	"nodes":[
		{
			"mesh":0,
			"name":"Amirani_00",
			"rotation":[
				-0.6241047382354736,
				0.33234721422195435,
				0.28271484375,
				0.6481597423553467
			],
			"translation":[
				0,
				-0.6332640647888184,
				0
			]
		}
	],
	"materials":[
		{
			"doubleSided":true,
			"extensions":{
				"KHR_materials_specular":{
					"specularFactor":0
				},
				"KHR_materials_ior":{
					"ior":1.4500000476837158
				}
			},
			"name":"Amirani_00",
			"pbrMetallicRoughness":{
				"baseColorTexture":{
					"index":0
				},
				"metallicFactor":0
			}
		}
	],
	"meshes":[
		{
			"name":"Amirani_00",
			"primitives":[
				{
					"attributes":{
						"COLOR_0":0,
						"POSITION":1,
						"NORMAL":2,
						"TEXCOORD_0":3
					},
					"indices":4,
					"material":0
				}
			]
		}
	],
	"textures":[
		{
			"sampler":0,
			"source":0
		}
	],
	"images":[
		{
			"mimeType":"image/jpeg",
			"name":"Amirani_00",
			"uri":"Amirani_00.jpg"
		}
	],
	"accessors":[
		{
			"bufferView":0,
			"componentType":5126,
			"count":411931,
			"type":"VEC4"
		},
		{
			"bufferView":1,
			"componentType":5126,
			"count":411931,
			"max":[
				2.3433010578155518,
				2.5091583728790283,
				6.393084526062012
			],
			"min":[
				-2.3256781101226807,
				-2.544020891189575,
				-3.3445253372192383
			],
			"type":"VEC3"
		},
		{
			"bufferView":2,
			"componentType":5126,
			"count":411931,
			"type":"VEC3"
		},
		{
			"bufferView":3,
			"componentType":5126,
			"count":411931,
			"type":"VEC2"
		},
		{
			"bufferView":4,
			"componentType":5125,
			"count":977418,
			"type":"SCALAR"
		}
	],
	"bufferViews":[
		{
			"buffer":0,
			"byteLength":6590896,
			"byteOffset":0,
			"target":34962
		},
		{
			"buffer":0,
			"byteLength":4943172,
			"byteOffset":6590896,
			"target":34962
		},
		{
			"buffer":0,
			"byteLength":4943172,
			"byteOffset":11534068,
			"target":34962
		},
		{
			"buffer":0,
			"byteLength":3295448,
			"byteOffset":16477240,
			"target":34962
		},
		{
			"buffer":0,
			"byteLength":3909672,
			"byteOffset":19772688,
			"target":34963
		}
	],
	"samplers":[
		{
			"magFilter":9729,
			"minFilter":9987
		}
	],
	"buffers":[
		{
			"byteLength":23682360,
			"uri":"amirani.wip1.bin"
		}
	]
}
